<svg width="28" height="28" viewBox="0 0 28 28" fill="none" xmlns="http://www.w3.org/2000/svg">
<path d="M13.9998 17.7607C16.0664 17.7607 17.7598 16.0674 17.7598 14.0007C17.7598 11.9341 16.0664 10.2407 13.9998 10.2407C11.9331 10.2407 10.2397 11.9341 10.2397 14.0007C10.2397 16.0674 11.9331 17.7607 13.9998 17.7607Z" fill="#4D5566"/>
<path d="M20.8532 0.666992H7.14648C3.57315 0.666992 0.666504 3.57366 0.666504 7.14699V20.8537C0.666504 24.427 3.57315 27.3337 7.14648 27.3337H20.8532C24.4265 27.3337 27.3332 24.427 27.3332 20.8537V7.14699C27.3332 3.57366 24.4265 0.666992 20.8532 0.666992ZM20.8665 8.54699C20.1065 8.54699 19.4932 7.93366 19.4932 7.18699C19.4932 6.42699 20.1065 5.81366 20.8665 5.81366C21.6132 5.81366 22.2265 6.42699 22.2265 7.18699C22.2265 7.93366 21.6132 8.54699 20.8665 8.54699ZM13.9998 8.24033C17.1732 8.24033 19.7598 10.827 19.7598 14.0003C19.7598 17.1737 17.1732 19.7603 13.9998 19.7603C10.8265 19.7603 8.23983 17.1737 8.23983 14.0003C8.23983 10.827 10.8265 8.24033 13.9998 8.24033Z" fill="#4D5566"/>
</svg>
